<svg width="24" height="25" viewBox="0 0 24 25" fill="none" xmlns="http://www.w3.org/2000/svg">
<g clip-path="url(#clip0_1267_173)">
<path d="M8.98657 9.85834V20.233C8.98657 21.0507 9.6494 21.7135 10.4671 21.7135H22.0861C22.9038 21.7135 23.5666 21.0507 23.5666 20.233V6.47265C23.5666 5.65499 22.9038 4.99216 22.0861 4.99216H13.8528C13.362 4.99216 12.8913 5.18712 12.5442 5.53414L9.52856 8.54983C9.18153 8.89686 8.98657 9.36754 8.98657 9.85834Z" fill="white"/>
<path d="M7.60645 8.47812V18.8528C7.60645 19.6704 8.26928 20.3333 9.08694 20.3333H20.706C21.5236 20.3333 22.1865 19.6704 22.1865 18.8528V5.09243C22.1865 4.27477 21.5236 3.61194 20.706 3.61194H12.4726C11.9818 3.61194 11.5111 3.8069 11.1641 4.15392L8.14843 7.16961C7.80145 7.51669 7.60645 7.98732 7.60645 8.47812Z" fill="white"/>
<path d="M6.22632 7.09793V17.4726C6.22632 18.2903 6.88915 18.9531 7.70681 18.9531H19.3258C20.1435 18.9531 20.8063 18.2903 20.8063 17.4726V3.71224C20.8063 2.89458 20.1435 2.23175 19.3258 2.23175H11.0925C10.6017 2.23175 10.131 2.42671 9.78399 2.77373L6.7683 5.78943C6.42128 6.13645 6.22632 6.60714 6.22632 7.09793Z" fill="white"/>
<path d="M4.84595 5.71776V16.0924C4.84595 16.9101 5.50878 17.5729 6.32644 17.5729H17.9455C18.7631 17.5729 19.426 16.9101 19.426 16.0924V2.33207C19.426 1.51441 18.7631 0.851578 17.9455 0.851578H9.71213C9.22133 0.851578 8.75065 1.04654 8.40362 1.39356L5.38793 4.40925C5.04091 4.75628 4.84595 5.22696 4.84595 5.71776Z" fill="white"/>
<path d="M4.84595 5.71799V6.03394C4.84595 5.43608 5.33079 4.95124 5.92865 4.95124H7.46521C8.28278 4.95124 8.94556 4.28845 8.94556 3.47088V1.93433C8.94556 1.33646 9.43035 0.851624 10.0283 0.851624H9.71236C9.22147 0.851624 8.75079 1.04677 8.40358 1.39365L5.38802 4.40921C5.04109 4.75646 4.84595 5.22715 4.84595 5.71799Z" fill="white"/>
<path d="M5.86816 17.4706L7.11061 18.7131L4.23223 21.5914L2.98979 20.349L5.86816 17.4706Z" fill="white"/>
<path d="M5.86816 17.4706L6.48937 18.0918L3.61099 20.9702L2.98979 20.349L5.86816 17.4706Z" fill="white"/>
<path d="M9.49539 20.2951C12.3718 20.2951 14.7037 17.9632 14.7037 15.0868C14.7037 12.2103 12.3718 9.87849 9.49539 9.87849C6.61894 9.87849 4.28711 12.2103 4.28711 15.0868C4.28711 17.9632 6.61894 20.2951 9.49539 20.2951Z" fill="white"/>
<path d="M6.13662 19.0674C6.02543 18.9736 5.91738 18.8743 5.81275 18.7697C3.77875 16.7356 3.77903 13.4377 5.81275 11.4039C7.84676 9.36993 11.1445 9.36993 13.1785 11.4039C13.2831 11.5086 13.3824 11.6166 13.4762 11.7278C11.4297 9.99643 8.36339 10.0958 6.43401 12.0252C4.50491 13.9543 4.40525 17.0209 6.13662 19.0674Z" fill="white"/>
<path d="M9.49542 18.7687C11.5289 18.7687 13.1774 17.1203 13.1774 15.0868C13.1774 13.0533 11.5289 11.4048 9.49542 11.4048C7.46194 11.4048 5.81348 13.0533 5.81348 15.0868C5.81348 17.1203 7.46194 18.7687 9.49542 18.7687Z" fill="white"/>
<path d="M7.46276 18.1573C7.26133 18.0236 7.06998 17.8678 6.89227 17.6902C5.45425 16.2522 5.45425 13.921 6.89199 12.4832C8.33002 11.0452 10.6612 11.0452 12.0992 12.4832C12.2769 12.6609 12.4326 12.8522 12.5663 13.0537C11.1366 12.1047 9.18987 12.2604 7.92951 13.5208C6.66947 14.7809 6.51379 16.7275 7.46276 18.1573Z" fill="white"/>
<path d="M1.68976 23.911L0.67119 22.8924C0.353744 22.575 0.353744 22.0603 0.67119 21.7428L3.25515 19.1589C3.5726 18.8414 4.0873 18.8414 4.40475 19.1589L5.42332 20.1774C5.74077 20.4949 5.74077 21.0096 5.42332 21.327L2.83936 23.911C2.52191 24.2285 2.00726 24.2285 1.68976 23.911Z" fill="white"/>
<path d="M1.4168 23.6379L0.671331 22.8924C0.353697 22.5748 0.353697 22.0604 0.671331 21.7427L3.25525 19.1588C3.57288 18.8412 4.0873 18.8412 4.40493 19.1588L5.15041 19.9043C4.83277 19.5867 4.31835 19.5867 4.00072 19.9043L1.4168 22.4883C1.09917 22.8058 1.09917 23.3203 1.4168 23.6379Z" fill="white"/>
<path d="M9.18329 17.5776C8.95406 17.5776 8.73627 17.4718 8.59457 17.289L7.34888 15.6822C7.09678 15.357 7.15603 14.8891 7.48121 14.637C7.80644 14.3849 8.27436 14.4441 8.52646 14.7693L9.08564 15.4906L10.1769 13.5583C10.3792 13.2001 10.8336 13.0737 11.1919 13.276C11.5502 13.4783 11.6766 13.9328 11.4743 14.2911L9.83201 17.1989C9.70938 17.4161 9.48615 17.5575 9.23743 17.5756C9.21933 17.5769 9.20124 17.5776 9.18329 17.5776Z" fill="white"/>
<path d="M22.4922 4.68638C22.3367 4.00475 21.7992 3.46202 21.1117 3.30625C20.9562 2.62167 20.4162 2.08156 19.7319 1.92602C19.5462 1.10681 18.8108 0.5 17.9457 0.5H9.71191C9.12375 0.5 8.57085 0.728991 8.15501 1.14488C8.1514 1.14844 8.14793 1.15214 8.14446 1.15585L5.13875 4.16062C4.72305 4.57692 4.49411 5.13016 4.49411 5.71831V12.6582C3.66496 14.3696 3.76397 16.421 4.79131 18.0511L4.20849 18.6339C3.80076 18.4945 3.33102 18.5857 3.00659 18.9101L0.422812 21.4943C0.202915 21.7142 0.0817871 22.0066 0.0817871 22.3176C0.0817871 22.6286 0.202915 22.921 0.422765 23.1409L1.44139 24.1595C1.66841 24.3865 1.96649 24.5 2.26467 24.5C2.56276 24.5 2.86099 24.3865 3.08792 24.1595L4.30529 22.9426C4.44259 22.8054 4.44264 22.5828 4.30539 22.4455C4.16809 22.3081 3.94552 22.3081 3.80817 22.4454L2.59079 23.6623C2.41098 23.8421 2.11837 23.8422 1.93856 23.6623L0.919935 22.6437C0.832886 22.5566 0.784884 22.4408 0.784884 22.3176C0.784884 22.1943 0.832839 22.0786 0.919982 21.9915L3.5038 19.4072C3.68353 19.2274 3.97646 19.2275 4.15646 19.4072L5.17494 20.4257C5.35485 20.6058 5.35495 20.8987 5.17508 21.0785L4.80242 21.4512C4.66512 21.5885 4.66512 21.8111 4.80242 21.9484C4.93972 22.0856 5.16229 22.0857 5.29963 21.9484L5.67225 21.5757C5.99673 21.2513 6.0879 20.7815 5.94845 20.3738L6.53126 19.7909C7.09134 20.1439 7.7011 20.3873 8.32981 20.5211C8.44344 20.5727 8.56053 20.6128 8.68073 20.64C8.86682 21.4589 9.60217 22.0654 10.4671 22.0654H22.0863C23.0964 22.0654 23.9182 21.2434 23.9182 20.233V6.47251C23.9183 5.60755 23.3115 4.87224 22.4922 4.68638ZM19.7777 16.0925V2.67843C20.1541 2.84372 20.4243 3.20879 20.4522 3.64071C20.4538 3.66251 20.4545 3.68595 20.4545 3.71243V17.473C20.4545 18.0954 19.9481 18.6017 19.3258 18.6017H13.8036C13.9802 18.3857 14.138 18.1593 14.2771 17.9249H17.9457C18.9559 17.9249 19.7777 17.1028 19.7777 16.0925ZM8.61772 1.67697C8.60254 1.7605 8.59414 1.84643 8.59414 1.93432V3.47088C8.59414 4.0933 8.08774 4.59966 7.46536 4.59966H5.92881C5.84054 4.59966 5.75429 4.6081 5.67038 4.62342L8.61772 1.67697ZM5.19726 6.04209C5.1973 6.03937 5.19768 6.0367 5.19768 6.03393C5.19768 5.6308 5.52567 5.3028 5.92881 5.3028H7.46536C8.4755 5.3028 9.29729 4.48101 9.29729 3.47088V1.93432C9.29729 1.53118 9.62528 1.20319 10.0284 1.20319C10.0289 1.20319 10.0293 1.20314 10.0298 1.20314H17.9457C18.5392 1.20314 19.0339 1.66623 19.0722 2.26058C19.0737 2.28224 19.0745 2.30558 19.0745 2.33193V16.0925C19.0745 16.7151 18.5681 17.2217 17.9457 17.2217H14.6289C15.4645 15.2049 15.0641 12.7926 13.427 11.1554C11.2591 8.98756 7.7319 8.98761 5.56411 11.1554C5.43393 11.2855 5.31177 11.4207 5.19726 11.5601V6.04209ZM6.06137 11.6526C7.00827 10.7056 8.25176 10.2324 9.49562 10.2324C10.7392 10.2324 11.9831 10.7059 12.9298 11.6526C14.8234 13.5462 14.8234 16.6274 12.9298 18.521C11.0362 20.4146 7.95499 20.4146 6.06142 18.521C4.16771 16.6274 4.16771 13.5462 6.06137 11.6526ZM5.53575 19.7921L4.79013 19.0465L5.20907 18.6276C5.32021 18.7619 5.43834 18.8924 5.56411 19.0182C5.68983 19.1439 5.82033 19.262 5.95468 19.3731L5.53575 19.7921ZM23.2151 20.233C23.2151 20.8557 22.7087 21.3623 22.0864 21.3623H10.4671C10.0076 21.3623 9.60742 21.0846 9.43234 20.6849H20.7059C21.7163 20.6849 22.5382 19.8631 22.5382 18.853V8.69069C22.5382 8.49653 22.3809 8.33912 22.1867 8.33912C21.9925 8.33912 21.8351 8.49653 21.8351 8.69069V18.853C21.8351 19.4754 21.3285 19.9818 20.7059 19.9818H12.1324C12.4788 19.7954 12.8096 19.57 13.1179 19.3049H19.3257C20.3359 19.3049 21.1576 18.4831 21.1576 17.473V4.05805C21.5574 4.23309 21.8351 4.63308 21.8351 5.09247V7.28722C21.8351 7.48138 21.9924 7.63879 22.1866 7.63879C22.3808 7.63879 22.5382 7.48138 22.5382 7.28722V5.43832C22.9376 5.6135 23.2151 6.01335 23.2151 6.47251V20.233H23.2151Z" fill="black"/>
<path d="M9.4955 19.1203C10.5729 19.1203 11.5859 18.7007 12.3477 17.9389C13.9203 16.3663 13.9203 13.8073 12.3477 12.2347C11.5859 11.4728 10.5729 11.0533 9.4955 11.0533C8.41814 11.0533 7.40519 11.4728 6.64336 12.2347C5.0707 13.8073 5.0707 16.3663 6.64336 17.9389C7.40524 18.7007 8.41814 19.1203 9.4955 19.1203ZM7.14062 12.7318C7.76961 12.1028 8.60597 11.7564 9.4955 11.7564C10.3851 11.7564 11.2214 12.1028 11.8504 12.7318C13.1489 14.0304 13.1489 16.1432 11.8504 17.4417C11.2214 18.0707 10.3851 18.4171 9.4955 18.4171C8.60593 18.4171 7.76961 18.0707 7.14062 17.4417C5.8421 16.1432 5.8421 14.0304 7.14062 12.7318Z" fill="black"/>
<path d="M6.56881 8.91528C6.75027 8.98438 6.95338 8.89334 7.02253 8.71188L7.1549 8.3643H8.08005L8.21089 8.7109C8.264 8.85167 8.39778 8.93844 8.53986 8.93844C8.58112 8.93844 8.62307 8.93112 8.66395 8.9157C8.84559 8.84717 8.93728 8.64429 8.8687 8.46264L7.99882 6.15764C7.99765 6.15441 7.99633 6.15117 7.99502 6.14794C7.93235 5.99569 7.78553 5.89734 7.62095 5.89734C7.62081 5.89734 7.62062 5.89734 7.62048 5.89734C7.45566 5.89753 7.30889 5.9962 7.24645 6.14874C7.24538 6.15136 7.2443 6.15403 7.24331 6.15671L6.36541 8.46156C6.29627 8.64307 6.3874 8.84618 6.56881 8.91528ZM7.81464 7.66111H7.42266L7.61954 7.1442L7.81464 7.66111Z" fill="black"/>
<path d="M15.0476 8.9383C15.2418 8.9383 15.3992 8.78089 15.3992 8.58672V6.24891C15.3992 6.05475 15.2418 5.89734 15.0476 5.89734C14.8534 5.89734 14.696 6.05475 14.696 6.24891V8.58672C14.696 8.78089 14.8534 8.9383 15.0476 8.9383Z" fill="black"/>
<path d="M11.9848 8.58799C11.9851 8.68127 12.0225 8.77053 12.0887 8.83625C12.1545 8.90164 12.2436 8.9383 12.3363 8.9383H12.3376C12.3577 8.9382 12.8302 8.93642 13.0192 8.93309C13.7551 8.92025 14.2893 8.28297 14.2893 7.41782C14.2893 6.50837 13.7687 5.89734 12.9937 5.89734H12.3316C12.2382 5.89734 12.1487 5.93447 12.0827 6.00056C12.0168 6.06666 11.9798 6.15624 11.98 6.24957C11.98 6.24961 11.9817 7.14875 11.9817 7.41524C11.9817 7.74033 11.9848 8.58799 11.9848 8.58799ZM12.9937 6.60048C13.5435 6.60048 13.5862 7.22609 13.5862 7.41782C13.5862 7.81706 13.4071 8.22306 13.0069 8.23004C12.9321 8.23136 12.8081 8.23243 12.6867 8.23328C12.6858 7.96172 12.6849 7.60199 12.6849 7.41524C12.6849 7.25853 12.6843 6.88343 12.6838 6.60048H12.9937Z" fill="black"/>
<path d="M9.71484 8.75975C9.89976 8.87792 10.1083 8.93797 10.3346 8.9383H10.3364C10.5308 8.9383 10.7134 8.89592 10.8793 8.81234C11.2882 8.60641 11.5134 8.26675 11.5134 7.85588V6.24891C11.5134 6.05475 11.356 5.89734 11.1618 5.89734C10.9676 5.89734 10.8102 6.05475 10.8102 6.24891V7.85588C10.8102 7.95675 10.7809 8.07465 10.5631 8.18434C10.4952 8.21851 10.4211 8.23511 10.3364 8.23511C10.3361 8.23511 10.3358 8.23511 10.3355 8.23511C10.244 8.23497 10.1648 8.21275 10.0934 8.16718C9.92311 8.05838 9.88894 7.96805 9.88894 7.85756V6.24891C9.88894 6.05475 9.73157 5.89734 9.53736 5.89734C9.34315 5.89734 9.18579 6.05475 9.18579 6.24891V7.85761C9.18579 8.23192 9.36378 8.53544 9.71484 8.75975Z" fill="black"/>
<path d="M16.2869 6.60048H16.5783V8.58672C16.5783 8.78089 16.7356 8.9383 16.9298 8.9383C17.124 8.9383 17.2814 8.78089 17.2814 8.58672V6.60048H17.578C17.7722 6.60048 17.9296 6.44307 17.9296 6.24891C17.9296 6.05475 17.7722 5.89734 17.578 5.89734H16.2869C16.0927 5.89734 15.9353 6.05475 15.9353 6.24891C15.9353 6.44307 16.0927 6.60048 16.2869 6.60048Z" fill="black"/>
<path d="M9.18325 17.9291C9.20978 17.9291 9.23641 17.9281 9.26298 17.9262C9.63003 17.8995 9.95727 17.6922 10.1382 17.3718L11.7804 14.4639C12.0778 13.9374 11.8913 13.2672 11.3648 12.9698C10.8385 12.6726 10.1682 12.8589 9.87078 13.3854L9.03957 14.8573L8.8043 14.5538C8.62486 14.3224 8.36596 14.1746 8.07537 14.1378C7.78479 14.101 7.49725 14.1796 7.26577 14.3591C6.78796 14.7295 6.70059 15.4197 7.07105 15.8975L8.31674 17.5044C8.5229 17.7703 8.84686 17.9291 9.18325 17.9291ZM7.69657 14.9148C7.76627 14.8608 7.85009 14.8322 7.93686 14.8322C7.9535 14.8322 7.97028 14.8333 7.98706 14.8354C8.09131 14.8486 8.18417 14.9016 8.24854 14.9847L8.80777 15.706C8.87991 15.7991 8.9941 15.8498 9.1112 15.8412C9.22858 15.8327 9.33391 15.766 9.39175 15.6635L10.483 13.7313C10.5897 13.5424 10.8302 13.4754 11.0191 13.5821C11.2079 13.6888 11.2748 13.9293 11.1682 14.1182L9.52596 17.026C9.46104 17.141 9.34361 17.2154 9.21194 17.2249C9.08096 17.2345 8.95229 17.1766 8.87246 17.0736L7.62682 15.4668C7.49383 15.2953 7.52519 15.0477 7.69657 14.9148Z" fill="black"/>
</g>
<defs>
<clipPath id="clip0_1267_173">
<rect width="24" height="24" fill="white" transform="translate(0 0.5)"/>
</clipPath>
</defs>
</svg>
