<svg width="24" height="24" viewBox="0 0 24 24" fill="none" xmlns="http://www.w3.org/2000/svg">
<g clip-path="url(#clip0_1266_133)">
<path d="M4.842 5.00803H4.25902C4.18411 5.00831 4.10648 5.00859 4.03125 5.00887V6.09178C4.33209 6.09061 4.69275 6.0893 4.842 6.0893C5.14012 6.0893 5.38266 5.84677 5.38266 5.54864C5.38266 5.25056 5.14012 5.00803 4.842 5.00803Z" fill="white"/>
<path d="M14.7668 6.09375C15.5435 6.09375 16.1731 5.46415 16.1731 4.6875C16.1731 3.91085 15.5435 3.28125 14.7668 3.28125C13.9902 3.28125 13.3606 3.91085 13.3606 4.6875C13.3606 5.46415 13.9902 6.09375 14.7668 6.09375Z" fill="white"/>
<path d="M4.65178 4.0695C4.86909 4.0695 5.04591 3.89273 5.04591 3.67537C5.04591 3.45802 4.86914 3.28125 4.65178 3.28125H4.03125V4.07053H4.25634C4.42088 4.06997 4.57167 4.0695 4.65178 4.0695Z" fill="white"/>
<path d="M9.37158 6.09375C10.1482 6.09375 10.7778 5.46415 10.7778 4.6875C10.7778 3.91085 10.1482 3.28125 9.37158 3.28125C8.59493 3.28125 7.96533 3.91085 7.96533 4.6875C7.96533 5.46415 8.59493 6.09375 9.37158 6.09375Z" fill="white"/>
<path d="M17.1884 15.9488L13.6406 15.3572V10.7812C13.6406 9.87516 12.9061 9.14062 12 9.14062C11.0939 9.14062 10.3594 9.87516 10.3594 10.7812V16.5C10.3594 15.5939 9.62484 14.8594 8.71875 14.8594C7.81266 14.8594 7.07812 15.5939 7.07812 16.5V20.2631C7.07812 21.8142 7.9545 23.2321 9.34181 23.9258L9.49027 24H17.3222L17.4707 23.9257C18.858 23.2321 19.7344 21.8141 19.7344 20.2631V18.9542C19.7344 17.4586 18.6636 16.1947 17.1884 15.9488Z" fill="white"/>
<path d="M22.125 0H1.875C0.839438 0 0 0.839438 0 1.875V7.5C0 8.53552 0.839438 9.375 1.875 9.375H9.29841C9.80742 8.40108 10.827 7.73438 12 7.73438C13.173 7.73438 14.1926 8.40108 14.7016 9.375H22.125C23.1606 9.375 24 8.53552 24 7.5V1.875C24 0.839438 23.1606 0 22.125 0ZM4.842 7.0268C4.566 7.0268 3.56456 7.03125 3.56456 7.03125C3.56386 7.03125 3.56316 7.03125 3.5625 7.03125C3.43856 7.03125 3.31964 6.98217 3.2318 6.8947C3.14344 6.80672 3.09375 6.68719 3.09375 6.5625V2.8125C3.09375 2.55366 3.30361 2.34375 3.5625 2.34375H4.65178C5.38603 2.34375 5.98341 2.94112 5.98341 3.67537C5.98341 3.94186 5.90442 4.19011 5.76905 4.39852C6.10486 4.66969 6.32016 5.08439 6.32016 5.54864C6.32016 6.3637 5.65706 7.0268 4.842 7.0268ZM9.37167 7.03125C8.07933 7.03125 7.02792 5.97984 7.02792 4.6875C7.02792 3.39516 8.07933 2.34375 9.37167 2.34375C10.664 2.34375 11.7154 3.39516 11.7154 4.6875C11.7154 5.97984 10.664 7.03125 9.37167 7.03125ZM14.7669 7.03125C13.4745 7.03125 12.4231 5.97984 12.4231 4.6875C12.4231 3.39516 13.4745 2.34375 14.7669 2.34375C16.0592 2.34375 17.1106 3.39516 17.1106 4.6875C17.1106 5.97984 16.0593 7.03125 14.7669 7.03125ZM20.7748 6.88795C20.6828 6.9833 20.5602 7.03125 20.4375 7.03125C20.3203 7.03125 20.203 6.98761 20.112 6.89981L18.7559 5.59144V6.5625C18.7559 6.82134 18.546 7.03125 18.2872 7.03125C18.0283 7.03125 17.8184 6.82134 17.8184 6.5625V2.8125C17.8184 2.55366 18.0283 2.34375 18.2872 2.34375C18.546 2.34375 18.7559 2.55366 18.7559 2.8125V3.64645L19.9872 2.5147C20.1778 2.33948 20.4744 2.35209 20.6495 2.54259C20.8247 2.73319 20.8122 3.02977 20.6216 3.20494L19.0909 4.61198L20.763 6.22519C20.9493 6.40491 20.9546 6.70167 20.7748 6.88795Z" fill="white"/>
</g>
<defs>
<clipPath id="clip0_1266_133">
<rect width="24" height="24" fill="white"/>
</clipPath>
</defs>
</svg>
