<svg width="24" height="24" viewBox="0 0 24 24" fill="none" xmlns="http://www.w3.org/2000/svg">
<g clip-path="url(#clip0_1266_36)">
<path fill-rule="evenodd" clip-rule="evenodd" d="M23.19 9.32948C21.3028 8.94816 19.4157 9.13927 17.5285 9.90286C17.4127 9.94969 17.3541 10.0788 17.3949 10.1968L20.0606 17.8942C20.0939 17.9903 20.1803 18.0519 20.2821 18.0519H23.19V9.32948ZM6.88899 0.570984C7.90922 0.570984 8.73628 1.38787 8.73628 2.39559C8.73628 3.40331 7.90922 4.2202 6.88899 4.2202C5.86875 4.2202 5.04169 3.40331 5.04169 2.39559C5.04169 1.38787 5.86875 0.570984 6.88899 0.570984ZM11.9999 1.91747C13.0201 1.91747 13.8472 2.73436 13.8472 3.74208C13.8472 4.7498 13.0201 5.56669 11.9999 5.56669C10.9797 5.56669 10.1526 4.7498 10.1526 3.74208C10.1526 2.73436 10.9797 1.91747 11.9999 1.91747ZM17.1109 0.570984C18.1311 0.570984 18.9582 1.38787 18.9582 2.39559C18.9582 3.40331 18.1311 4.2202 17.1109 4.2202C16.0906 4.2202 15.2636 3.40331 15.2636 2.39559C15.2636 1.38787 16.0906 0.570984 17.1109 0.570984ZM8.85216 13.8454C8.85216 13.4833 8.97853 13.1888 9.24253 12.9406L11.1707 11.1276C12.2934 10.0721 13.3305 10.2825 14.6393 10.6968C15.4022 10.9383 16.1443 11.1731 17.0081 11.2283L19.1149 17.312C18.8607 17.4385 18.5994 17.5641 18.3153 17.68C17.8374 17.875 17.3319 17.7738 16.9667 17.4089L12.7636 13.2083C12.6314 13.0769 12.4207 13.0726 12.2834 13.195C12.2832 13.1949 12.1429 13.3116 12.1303 13.3217C11.6998 13.6692 10.9783 14.2515 10.9783 15.215C10.9783 15.7663 10.7108 16.2231 10.3038 16.5525C9.912 16.8697 9.39342 17.0719 8.85216 17.1336V13.8454ZM6.91083 11.4622C7.25086 11.5486 7.58138 11.6083 7.91124 11.643C8.47758 11.7028 9.03628 11.6886 9.63263 11.611L8.76188 12.4298C8.36199 12.8058 8.14903 13.2964 8.14903 13.8454V17.5053C8.14903 17.6994 8.30644 17.8568 8.5006 17.8568C9.31805 17.8568 10.1437 17.584 10.746 17.0965C11.3104 16.6396 11.6814 15.998 11.6814 15.2151C11.6814 14.6313 12.1595 14.2028 12.4937 13.9299L16.4723 17.9061C16.6631 18.0967 16.8823 18.2414 17.118 18.3376C17.2785 18.5053 17.4384 18.6733 17.5985 18.8413C17.8824 19.1382 17.8997 19.6101 17.604 19.9058C17.3152 20.1946 16.8352 20.1946 16.5464 19.9058C15.7749 19.1344 15.0168 18.3449 14.254 17.5633C14.119 17.4245 13.897 17.4214 13.7583 17.5564C13.6195 17.6914 13.6164 17.9134 13.7514 18.0521L15.8441 20.1977C16.1346 20.4882 16.1344 20.9648 15.844 21.2553C15.5536 21.5457 15.0769 21.5457 14.7865 21.2553C13.9822 20.451 13.1921 19.6303 12.3968 18.8155C12.2618 18.6767 12.0398 18.6736 11.9011 18.8086C11.7623 18.9436 11.7592 19.1656 11.8943 19.3044L13.9869 21.45C14.2758 21.7388 14.2759 22.2187 13.987 22.5075C13.7078 22.7866 13.1819 22.76 12.9294 22.5075C12.056 21.6342 11.1981 20.7474 10.3348 19.8627C10.1998 19.7239 9.97777 19.7208 9.83902 19.8558C9.70027 19.9908 9.69717 20.2128 9.83217 20.3516L11.9248 22.4972C12.138 22.7104 12.1358 23.0625 11.9212 23.2732C11.7126 23.4768 11.3693 23.484 11.1612 23.2759C11.1528 23.2842 7.71764 19.7488 7.40452 19.4279C6.61055 18.6145 5.9033 17.8925 4.86614 17.3664L6.91083 11.4622ZM8.93246 9.37505H15.0673V7.90509C15.0673 6.92259 14.517 6.06248 13.7095 5.61745C13.2558 6.02353 12.655 6.26977 11.9999 6.26977C11.3447 6.26977 10.7439 6.02348 10.2902 5.61745C9.48272 6.06248 8.93241 6.92259 8.93241 7.90509V9.37505H8.93246ZM15.7704 8.02856V7.90509C15.7704 6.80986 15.233 5.83533 14.4087 5.23148C14.6477 4.82986 14.9913 4.49695 15.4013 4.27102C15.8549 4.67709 16.4557 4.92333 17.1108 4.92333C17.766 4.92333 18.3668 4.67709 18.8205 4.27102C19.628 4.716 20.1783 5.57616 20.1783 6.55861V8.02856H15.7704ZM3.82153 8.02856V6.55861C3.82153 5.57611 4.3718 4.716 5.17936 4.27102C5.63306 4.67709 6.23381 4.92333 6.88899 4.92333C7.54416 4.92333 8.14486 4.67709 8.59856 4.27102C9.00849 4.49695 9.35213 4.82986 9.59114 5.23148C8.76685 5.83533 8.22938 6.80986 8.22938 7.90509V8.02856H3.82153ZM0.809814 9.32948V18.0519H3.7178C3.81947 18.0519 3.906 17.9903 3.93924 17.8943L6.60492 10.1969C6.6458 10.0788 6.58716 9.94973 6.47138 9.90291C4.58419 9.13931 2.697 8.94816 0.809814 9.32948Z" fill="white"/>
</g>
<defs>
<clipPath id="clip0_1266_36">
<rect width="24" height="24" fill="white"/>
</clipPath>
</defs>
</svg>
