<svg width="24" height="24" viewBox="0 0 24 24" fill="none" xmlns="http://www.w3.org/2000/svg">
<g clip-path="url(#clip0_1266_150)">
<path d="M10.7526 10.4953C10.8909 10.6279 11.0715 10.7074 11.2628 10.7198L15.1546 10.9714C15.1724 10.9725 15.1901 10.973 15.2078 10.973C15.6327 10.973 15.9902 10.6428 16.018 10.2127C16.0469 9.76494 15.7073 9.37835 15.2594 9.34938L11.6637 9.11695L11.4213 8.88441L10.5435 10.2947L10.7526 10.4953Z" fill="white"/>
<path d="M13.1702 20.7305L12.9031 20.9322L12.6537 20.7305L12.3687 20.9322L12.0896 20.7305L11.8977 20.9322V18.2248H9.29321V23.8591H16.0696V18.2248H13.4651V20.9322L13.1702 20.7305Z" fill="white"/>
<path d="M20.7547 20.9322L20.4598 20.7305L20.1926 20.9322L19.9433 20.7305L19.6583 20.9322L19.3792 20.7305L19.1872 20.9322V18.2248H16.5828V23.8591H23.3592V18.2248H20.7547V20.9322Z" fill="white"/>
<path d="M16.0696 12.037H13.4651V14.7444L13.1702 14.5427L12.9031 14.7444L12.6537 14.5427L12.3687 14.7444L12.0896 14.5427L11.8977 14.7444V12.037H9.29321V17.6713H16.0696V12.037Z" fill="white"/>
<path d="M20.7547 14.7444L20.4598 14.5427L20.1926 14.7444L19.9433 14.5427L19.6583 14.7444L19.3792 14.5427L19.1872 14.7444V12.037H16.5828V17.6713H23.3592V12.037H20.7547V14.7444Z" fill="white"/>
<path d="M6.7601 0.0458924C5.52297 -0.204572 4.31689 0.595288 4.0664 1.83255C3.81592 3.0698 4.61591 4.2758 5.85306 4.52626C7.09042 4.77677 8.29629 3.97686 8.54677 2.73961C8.79726 1.50235 7.99746 0.296398 6.7601 0.0458924Z" fill="white"/>
<path d="M6.97164 22.7441V12.8469L7.47423 10.3644L6.32752 9.93413C6.29868 9.92331 6.27121 9.91014 6.24448 9.89583L1.89487 10.2312L1.51099 12.1274C1.50327 12.1655 1.49945 12.2034 1.49738 12.2412C1.48463 12.313 1.47681 12.3865 1.47681 12.4619V22.7441C1.47681 23.4379 2.03929 24 2.73272 24C3.42634 24 3.98882 23.4379 3.98882 22.7441V13.43L4.45964 13.5253V22.7441C4.45964 23.4379 5.02212 24 5.71555 24C6.40916 24 6.97164 23.4379 6.97164 22.7441Z" fill="white"/>
<path d="M9.61911 10.9196C9.74186 10.9657 9.88004 10.9187 9.94931 10.8074L12.57 6.59711C12.6618 6.4497 12.5957 6.25517 12.4331 6.19416L9.15728 4.965C8.95558 4.88932 8.72849 4.96647 8.61465 5.14937L7.00306 7.73852L8.07311 7.65602C8.10049 7.65389 8.12767 7.6529 8.15456 7.6529C8.6973 7.6529 9.15512 8.07719 9.19679 8.61889C9.21831 8.89745 9.13003 9.16777 8.94818 9.38002C8.76634 9.59227 8.51268 9.72098 8.23402 9.74246L6.78052 9.85452L9.61911 10.9196ZM8.91217 5.62667C8.97348 5.52049 9.10746 5.48308 9.21141 5.5431C9.31537 5.60313 9.34996 5.73785 9.28865 5.84402C9.22735 5.9502 9.0934 5.98761 8.98943 5.92759C8.88545 5.86756 8.85088 5.73284 8.91217 5.62667Z" fill="white"/>
<path d="M0.826627 9.73318C0.981684 9.92097 1.21183 10.0285 1.4532 10.0285C1.47403 10.0285 1.49487 10.0277 1.51579 10.0261L8.21595 9.50953C8.66346 9.47501 8.99827 9.08425 8.96374 8.63679C8.92931 8.18928 8.54084 7.85458 8.09095 7.88895L2.58321 8.31359C2.78206 7.7503 2.97035 7.34362 3.1352 7.04988L3.37708 7.09567C3.24583 7.32049 3.09349 7.62958 2.92893 8.05259L6.71382 7.76081L8.02554 5.6534C8.01058 5.64425 7.99532 5.63579 7.97993 5.62771C7.8887 5.55836 7.78141 5.50728 7.66153 5.48301L3.81491 4.70424C3.73337 4.68773 3.6523 4.68474 3.57381 4.6933C3.07518 4.71491 2.26889 5.06257 1.47659 6.73587C1.20137 7.31713 0.927835 8.05782 0.669487 9.00106C0.599648 9.25617 0.658282 9.52926 0.826627 9.73318Z" fill="white"/>
</g>
<defs>
<clipPath id="clip0_1266_150">
<rect width="24" height="24" fill="white"/>
</clipPath>
</defs>
</svg>
