<svg width="24" height="24" viewBox="0 0 24 24" fill="none" xmlns="http://www.w3.org/2000/svg">
<g clip-path="url(#clip0_1266_143)">
<path d="M7.50191 15.7442C7.50191 15.4645 7.25631 15.2374 6.9531 15.2374C6.6499 15.2374 6.4043 15.4645 6.4043 15.7442C6.4043 16.0242 6.6499 16.251 6.9531 16.251C7.25631 16.251 7.50191 16.0242 7.50191 15.7442Z" fill="white"/>
<path d="M6.9531 11.6392C6.6505 11.6392 6.4043 11.8664 6.4043 12.1459C6.4043 12.4253 6.6505 12.6527 6.9531 12.6527C7.2557 12.6527 7.50211 12.4253 7.50211 12.1459C7.50211 11.8664 7.2557 11.6392 6.9531 11.6392Z" fill="white"/>
<path d="M7.50191 8.54768C7.50191 8.26772 7.25631 8.04092 6.9531 8.04092C6.6499 8.04092 6.4043 8.26772 6.4043 8.54768C6.4043 8.82744 6.6499 9.05444 6.9531 9.05444C7.25631 9.05444 7.50191 8.82744 7.50191 8.54768Z" fill="white"/>
<path d="M18.8985 0.66185C16.0811 0.66185 13.7972 2.94581 13.7974 5.76322C13.7974 8.58063 16.0813 10.8646 18.8987 10.8646C21.7161 10.8646 23.9999 8.58063 23.9999 5.76322C23.9969 2.94723 21.7147 0.665084 18.8985 0.66185ZM18.8749 5.39836C19.7514 5.39856 20.4843 6.06441 20.568 6.93684C20.6517 7.80947 20.0588 8.60266 19.1983 8.76922V9.24627C19.1983 9.44638 19.0362 9.6085 18.8361 9.6085C18.636 9.6085 18.4738 9.44638 18.4738 9.24627V8.75224C17.7116 8.56648 17.1749 7.88406 17.1739 7.09956C17.1739 6.89944 17.336 6.73732 17.5361 6.73732C17.736 6.73732 17.8983 6.89944 17.8983 7.09956C17.8983 7.63886 18.3356 8.07609 18.8749 8.07609C19.4142 8.07609 19.8514 7.63886 19.8514 7.09956C19.8514 6.56005 19.4142 6.12282 18.8749 6.12282C18.0136 6.12282 17.2883 5.47901 17.186 4.62397C17.0837 3.76872 17.6368 2.97209 18.4738 2.76894V2.31211C18.4738 2.11219 18.636 1.94988 18.8361 1.94988C19.0362 1.94988 19.1983 2.11219 19.1983 2.31211V2.75196C19.9976 2.90781 20.5749 3.60761 20.5759 4.42183C20.5759 4.62195 20.4138 4.78406 20.2136 4.78406C20.0137 4.78406 19.8514 4.62195 19.8514 4.42183C19.8508 3.88919 19.4235 3.455 18.8906 3.44611C18.8727 3.44894 18.8545 3.45055 18.8361 3.45055C18.8247 3.45055 18.8136 3.44995 18.8025 3.44894C18.279 3.48795 17.88 3.93387 17.8996 4.45862C17.919 4.98317 18.3499 5.39836 18.8751 5.39836H18.8749Z" fill="white"/>
<path d="M13.0523 23.2078C12.4491 22.6086 12.1097 21.7936 12.1089 20.9434V19.4923H0V20.9495C0.00606418 22.3171 1.1158 23.4233 2.48347 23.4251H13.2975C13.2087 23.361 13.1265 23.2882 13.0523 23.2078Z" fill="white"/>
<path d="M13.9977 8.88404H9.61047C9.41035 8.88404 9.24824 8.72192 9.24824 8.5218C9.24824 8.32189 9.41035 8.15957 9.61047 8.15957H13.6007C13.2506 7.40074 13.0705 6.5746 13.0729 5.73876C13.0741 5.33509 13.116 4.93263 13.1978 4.53725H3.44909L3.35327 18.7678H12.4897C12.5819 18.7642 12.6712 18.7989 12.7365 18.864C12.8018 18.9291 12.8368 19.0185 12.8334 19.1106V20.9438C12.84 22.3145 13.9518 23.4226 15.3225 23.4251H15.3306C16.696 23.4222 17.8011 22.3147 17.8011 20.9495V11.4854C16.2259 11.187 14.8469 10.244 13.9977 8.88404ZM6.95316 16.9756C6.25113 16.9756 5.67989 16.4232 5.67989 15.7442C5.67989 15.0654 6.25113 14.513 6.95316 14.513C7.65518 14.513 8.22663 15.0654 8.22663 15.7442C8.22663 16.4232 7.65538 16.9756 6.95316 16.9756ZM6.95316 13.3772C6.25113 13.3772 5.67989 12.8249 5.67989 12.1459C5.67989 11.467 6.25113 10.9147 6.95316 10.9147C7.65518 10.9147 8.22663 11.467 8.22663 12.1459C8.22663 12.8247 7.65538 13.3772 6.95316 13.3772ZM6.95316 9.7789C6.25113 9.7789 5.67989 9.22646 5.67989 8.54768C5.67989 7.86869 6.25113 7.31625 6.95316 7.31625C7.65518 7.31625 8.22663 7.86849 8.22663 8.54748C8.22663 9.22646 7.65538 9.7789 6.95316 9.7789ZM15.1297 16.1287H9.61047C9.41035 16.1287 9.24824 15.9666 9.24824 15.7664C9.24824 15.5665 9.41035 15.4042 9.61047 15.4042H15.1297C15.3298 15.4042 15.4919 15.5665 15.4919 15.7664C15.4919 15.9666 15.3298 16.1287 15.1297 16.1287ZM15.4919 12.1441C15.4919 12.3442 15.3298 12.5064 15.1297 12.5064H9.61047C9.41035 12.5064 9.24824 12.3442 9.24824 12.1441C9.24824 11.9442 9.41035 11.7819 9.61047 11.7819H15.1297C15.3298 11.7819 15.4919 11.9442 15.4919 12.1441Z" fill="white"/>
</g>
<defs>
<clipPath id="clip0_1266_143">
<rect width="24" height="24" fill="white"/>
</clipPath>
</defs>
</svg>
