<svg width="24" height="24" viewBox="0 0 24 24" fill="none" xmlns="http://www.w3.org/2000/svg">
<g clip-path="url(#clip0_1266_61)">
<path d="M16.4001 19.2H22.0001C22.0637 19.2003 22.1264 19.1851 22.1828 19.1559C22.2392 19.1266 22.2877 19.0841 22.3241 19.032C22.3613 18.9807 22.3857 18.9213 22.3955 18.8588C22.4052 18.7962 22.4 18.7322 22.3801 18.672L21.3121 15.472C21.2853 15.3926 21.2342 15.3236 21.166 15.2747C21.0978 15.2259 21.016 15.1998 20.9321 15.2H17.4681C17.3843 15.1998 17.3025 15.2259 17.2343 15.2747C17.1661 15.3236 17.115 15.3926 17.0881 15.472L16.0201 18.672C16.0003 18.7322 15.995 18.7962 16.0048 18.8588C16.0145 18.9213 16.0389 18.9807 16.0761 19.032C16.1125 19.0841 16.161 19.1266 16.2174 19.1559C16.2739 19.1851 16.3366 19.2003 16.4001 19.2Z" fill="white"/>
<path d="M9.19992 19.2H14.7999C14.8635 19.2003 14.9262 19.1851 14.9826 19.1559C15.039 19.1266 15.0875 19.0841 15.1239 19.032C15.1611 18.9807 15.1856 18.9213 15.1953 18.8588C15.205 18.7962 15.1998 18.7322 15.1799 18.672L14.1119 15.472C14.0851 15.3926 14.034 15.3236 13.9658 15.2747C13.8976 15.2259 13.8158 15.1998 13.7319 15.2H10.2679C10.1841 15.1998 10.1023 15.2259 10.0341 15.2747C9.96588 15.3236 9.91476 15.3926 9.88792 15.472L8.81992 18.672C8.80009 18.7322 8.79482 18.7962 8.80456 18.8588C8.81429 18.9213 8.83875 18.9807 8.87592 19.032C8.91233 19.0841 8.96082 19.1266 9.01725 19.1559C9.07368 19.1851 9.13636 19.2003 9.19992 19.2Z" fill="white"/>
<path d="M18.724 14.232C18.7612 14.1807 18.7857 14.1213 18.7954 14.0587C18.8051 13.9962 18.7999 13.9321 18.78 13.872L17.712 10.672C17.6852 10.5925 17.6341 10.5235 17.5659 10.4747C17.4977 10.4259 17.4159 10.3998 17.332 10.4H13.868C13.7842 10.3998 13.7024 10.4259 13.6342 10.4747C13.566 10.5235 13.5149 10.5925 13.488 10.672L12.42 13.872C12.4002 13.9321 12.3949 13.9962 12.4047 14.0587C12.4144 14.1213 12.4389 14.1807 12.476 14.232C12.5124 14.2841 12.5609 14.3266 12.6173 14.3559C12.6738 14.3851 12.7365 14.4003 12.8 14.4H18.4C18.4636 14.4003 18.5263 14.3851 18.5827 14.3559C18.6391 14.3266 18.6876 14.2841 18.724 14.232Z" fill="white"/>
<path d="M23.6 20H0.4C0.293913 20 0.192172 20.0421 0.117157 20.1172C0.0421427 20.1922 0 20.2939 0 20.4C0 20.5061 0.0421427 20.6078 0.117157 20.6828C0.192172 20.7579 0.293913 20.8 0.4 20.8H23.6C23.7061 20.8 23.8078 20.7579 23.8828 20.6828C23.9579 20.6078 24 20.5061 24 20.4C24 20.2939 23.9579 20.1922 23.8828 20.1172C23.8078 20.0421 23.7061 20 23.6 20Z" fill="white"/>
<path d="M11.6001 1.60001V3.60001C11.6001 3.7061 11.6422 3.80784 11.7173 3.88286C11.7923 3.95787 11.894 4.00001 12.0001 4.00001C12.1062 4.00001 12.2079 3.95787 12.2829 3.88286C12.358 3.80784 12.4001 3.7061 12.4001 3.60001V1.60001C12.4001 1.49393 12.358 1.39218 12.2829 1.31717C12.2079 1.24215 12.1062 1.20001 12.0001 1.20001C11.894 1.20001 11.7923 1.24215 11.7173 1.31717C11.6422 1.39218 11.6001 1.49393 11.6001 1.60001Z" fill="white"/>
<path d="M6.51731 7.48279C6.59275 7.55565 6.6938 7.59597 6.79867 7.59506C6.90355 7.59414 7.00388 7.55208 7.07804 7.47791C7.1522 7.40375 7.19427 7.30342 7.19518 7.19855C7.1961 7.09367 7.15578 6.99263 7.08291 6.91719L5.08291 4.91719C5.00747 4.84432 4.90643 4.804 4.80155 4.80492C4.69667 4.80583 4.59635 4.8479 4.52219 4.92206C4.44802 4.99622 4.40596 5.09655 4.40504 5.20143C4.40413 5.3063 4.44445 5.40734 4.51731 5.48279L6.51731 7.48279Z" fill="white"/>
<path d="M18.9173 4.91719L16.9173 6.91719C16.8791 6.95408 16.8486 6.99822 16.8276 7.04702C16.8067 7.09583 16.7956 7.14831 16.7952 7.20143C16.7947 7.25454 16.8048 7.30721 16.825 7.35637C16.8451 7.40553 16.8748 7.45019 16.9123 7.48774C16.9499 7.5253 16.9945 7.555 17.0437 7.57511C17.0929 7.59523 17.1455 7.60535 17.1986 7.60489C17.2518 7.60442 17.3042 7.59339 17.353 7.57243C17.4018 7.55146 17.446 7.52099 17.4829 7.48279L19.4829 5.48279C19.5557 5.40734 19.5961 5.3063 19.5952 5.20143C19.5942 5.09655 19.5522 4.99622 19.478 4.92206C19.4038 4.8479 19.3035 4.80583 19.1986 4.80492C19.0938 4.804 18.9927 4.84432 18.9173 4.91719Z" fill="white"/>
<path d="M0.799902 12H3.5999C3.70599 12 3.80773 11.9579 3.88275 11.8829C3.95776 11.8078 3.9999 11.7061 3.9999 11.6C3.9999 11.4939 3.95776 11.3922 3.88275 11.3172C3.80773 11.2422 3.70599 11.2 3.5999 11.2H0.799902C0.693816 11.2 0.592074 11.2422 0.51706 11.3172C0.442045 11.3922 0.399902 11.4939 0.399902 11.6C0.399902 11.7061 0.442045 11.8078 0.51706 11.8829C0.592074 11.9579 0.693816 12 0.799902 12Z" fill="white"/>
<path d="M20 11.6C20 11.7061 20.0421 11.8078 20.1172 11.8829C20.1922 11.9579 20.2939 12 20.4 12H23.2C23.3061 12 23.4078 11.9579 23.4828 11.8829C23.5579 11.8078 23.6 11.7061 23.6 11.6C23.6 11.4939 23.5579 11.3922 23.4828 11.3172C23.4078 11.2422 23.3061 11.2 23.2 11.2H20.4C20.2939 11.2 20.1922 11.2422 20.1172 11.3172C20.0421 11.3922 20 11.4939 20 11.6Z" fill="white"/>
<path d="M2.68797 15.472L1.61997 18.672C1.60014 18.7322 1.59487 18.7962 1.60461 18.8588C1.61434 18.9213 1.6388 18.9807 1.67597 19.032C1.71238 19.0841 1.76087 19.1266 1.8173 19.1559C1.87373 19.1851 1.93641 19.2003 1.99997 19.2H7.59997C7.66354 19.2003 7.72622 19.1851 7.78265 19.1559C7.83907 19.1266 7.88757 19.0841 7.92397 19.032C7.96114 18.9807 7.9856 18.9213 7.99534 18.8588C8.00507 18.7962 7.99981 18.7322 7.97997 18.672L6.91197 15.472C6.88514 15.3926 6.83401 15.3236 6.76582 15.2747C6.69764 15.2259 6.61583 15.1998 6.53197 15.2H3.06797C2.98412 15.1998 2.90231 15.2259 2.83412 15.2747C2.76593 15.3236 2.71481 15.3926 2.68797 15.472ZM3.69677 16.012C3.74776 16.0247 3.79574 16.0474 3.83798 16.0787C3.88021 16.1099 3.91587 16.1492 3.94291 16.1943C3.96995 16.2393 3.98785 16.2893 3.99558 16.3413C4.00332 16.3932 4.00073 16.4462 3.98797 16.4972L3.58797 18.0972C3.5663 18.1837 3.51635 18.2605 3.44606 18.3154C3.37576 18.3702 3.28914 18.4 3.19997 18.4C3.1672 18.4001 3.13453 18.3961 3.10277 18.388C3.05178 18.3753 3.0038 18.3526 2.96157 18.3214C2.91934 18.2901 2.88368 18.2508 2.85664 18.2058C2.82959 18.1607 2.81169 18.1107 2.80396 18.0588C2.79623 18.0068 2.79882 17.9538 2.81157 17.9028L3.21157 16.3028C3.23735 16.1999 3.30296 16.1115 3.39395 16.0569C3.48494 16.0024 3.59387 15.9862 3.69677 16.012Z" fill="white"/>
<path d="M9.88792 5.87201L8.81992 9.07201C8.80009 9.13216 8.79482 9.19617 8.80456 9.25875C8.81429 9.32134 8.83875 9.38072 8.87592 9.43201C8.91233 9.48411 8.96082 9.52662 9.01725 9.55588C9.07368 9.58514 9.13636 9.60028 9.19992 9.60001H14.7999C14.8635 9.60028 14.9262 9.58514 14.9826 9.55588C15.039 9.52662 15.0875 9.48411 15.1239 9.43201C15.1611 9.38072 15.1856 9.32134 15.1953 9.25875C15.205 9.19617 15.1998 9.13216 15.1799 9.07201L14.1119 5.87201C14.0851 5.79256 14.034 5.72355 13.9658 5.67474C13.8976 5.62594 13.8158 5.59979 13.7319 5.60001H10.2679C10.1841 5.59979 10.1023 5.62594 10.0341 5.67474C9.96588 5.72355 9.91476 5.79256 9.88792 5.87201ZM10.8967 6.41201C10.9477 6.42473 10.9957 6.44737 11.0379 6.47865C11.0802 6.50992 11.1158 6.54921 11.1429 6.59427C11.1699 6.63933 11.1878 6.68927 11.1955 6.74125C11.2033 6.79323 11.2007 6.84623 11.1879 6.89721L10.7879 8.49721C10.7663 8.58371 10.7163 8.66048 10.646 8.71535C10.5757 8.77021 10.4891 8.80001 10.3999 8.80001C10.3671 8.80014 10.3345 8.79611 10.3027 8.78801C10.2517 8.77529 10.2038 8.75264 10.1615 8.72137C10.1193 8.69009 10.0836 8.65081 10.0566 8.60575C10.0295 8.56069 10.0116 8.51074 10.0039 8.45876C9.99618 8.40678 9.99877 8.35379 10.0115 8.30281L10.4115 6.70281C10.4373 6.5999 10.5029 6.51146 10.5939 6.45692C10.6849 6.40239 10.7938 6.38623 10.8967 6.41201Z" fill="white"/>
<path d="M11.5241 14.232C11.5612 14.1807 11.5857 14.1213 11.5954 14.0587C11.6052 13.9962 11.5999 13.9321 11.5801 13.872L10.5121 10.672C10.4852 10.5925 10.4341 10.5235 10.3659 10.4747C10.2977 10.4259 10.2159 10.3998 10.1321 10.4H6.66807C6.58421 10.3998 6.50241 10.4259 6.43422 10.4747C6.36603 10.5235 6.31491 10.5925 6.28807 10.672L5.22007 13.872C5.20024 13.9321 5.19497 13.9962 5.2047 14.0587C5.21444 14.1213 5.2389 14.1807 5.27607 14.232C5.31248 14.2841 5.36097 14.3266 5.4174 14.3559C5.47383 14.3851 5.53651 14.4003 5.60007 14.4H11.2001C11.2636 14.4003 11.3263 14.3851 11.3827 14.3559C11.4392 14.3266 11.4877 14.2841 11.5241 14.232ZM7.58807 11.6972L7.18807 13.2972C7.1664 13.3837 7.11645 13.4605 7.04615 13.5153C6.97586 13.5702 6.88924 13.6 6.80007 13.6C6.76729 13.6001 6.73463 13.5961 6.70287 13.588C6.65188 13.5753 6.6039 13.5526 6.56167 13.5214C6.51943 13.4901 6.48378 13.4508 6.45673 13.4057C6.42969 13.3607 6.41179 13.3107 6.40406 13.2587C6.39633 13.2068 6.39891 13.1538 6.41167 13.1028L6.81167 11.5028C6.83806 11.4006 6.90381 11.3129 6.99457 11.2589C7.08534 11.205 7.19375 11.1891 7.29618 11.2148C7.39861 11.2404 7.48673 11.3055 7.54134 11.3959C7.59594 11.4863 7.613 11.5946 7.58807 11.6972Z" fill="white"/>
</g>
<defs>
<clipPath id="clip0_1266_61">
<rect width="24" height="24" fill="white"/>
</clipPath>
</defs>
</svg>
