<svg width="24" height="24" viewBox="0 0 24 24" fill="none" xmlns="http://www.w3.org/2000/svg">
<g clip-path="url(#clip0_1266_74)">
<path d="M5.03149 17.4383V21.1549C7.14842 21.2482 6.53759 21.6223 10.2208 23.2784C10.6899 23.4629 11.7728 23.7652 12.9325 23.2322C12.9331 23.232 12.9342 23.2315 12.9348 23.2313L20.1707 20.6405C20.4061 20.5322 21.5938 19.8869 21.1254 18.685C20.5777 17.4034 19.1683 17.938 19.0502 17.9765L15.2726 19.0209" fill="white"/>
<path d="M9.30537 18.9932L13.5124 20.3264C14.2466 20.5351 15.0109 20.1092 15.2197 19.375C15.4285 18.6408 15.0026 17.8764 14.1613 17.5642L10.4292 16.2975C10.4291 16.2973 9.63237 14.9963 7.7352 14.9963C6.53726 14.9963 5.50451 15.9645 5.03149 16.8121V18.5045" fill="white"/>
<path d="M7.62891 18.9306C7.59844 18.9306 7.5675 18.9273 7.5375 18.9212C7.5075 18.9156 7.47797 18.9062 7.44937 18.8945C7.42125 18.8828 7.39406 18.8683 7.36875 18.8513C7.34297 18.8345 7.31906 18.8148 7.2975 18.7932C7.27594 18.7717 7.25625 18.7478 7.23938 18.722C7.22203 18.6967 7.20797 18.6695 7.19625 18.6409C7.18453 18.6128 7.17516 18.5832 7.16953 18.5532C7.16344 18.5232 7.16016 18.4923 7.16016 18.4618C7.16016 18.4313 7.16344 18.4004 7.16953 18.3704C7.17516 18.3404 7.18453 18.3109 7.19625 18.2823C7.20797 18.2542 7.22203 18.227 7.23938 18.2017C7.25625 18.1759 7.27594 18.152 7.2975 18.1304C7.31906 18.1088 7.34297 18.0892 7.36875 18.0723C7.39406 18.0554 7.42125 18.0409 7.44937 18.0292C7.47797 18.0174 7.5075 18.0081 7.5375 18.0024C7.5975 17.9903 7.65984 17.9903 7.72031 18.0024C7.75031 18.0081 7.77984 18.0174 7.80797 18.0292C7.83656 18.0409 7.86375 18.0554 7.88906 18.0723C7.91484 18.0892 7.93875 18.1088 7.96031 18.1304C7.98188 18.152 8.00156 18.1759 8.01844 18.2017C8.03531 18.227 8.04984 18.2542 8.06156 18.2823C8.07328 18.3109 8.08219 18.3404 8.08828 18.3704C8.09438 18.4004 8.09766 18.4313 8.09766 18.4618C8.09766 18.4923 8.09438 18.5232 8.08828 18.5532C8.08219 18.5832 8.07328 18.6128 8.06156 18.6409C8.04984 18.6695 8.03531 18.6967 8.01844 18.722C8.00156 18.7478 7.98188 18.7717 7.96031 18.7932C7.93875 18.8148 7.91484 18.8345 7.88906 18.8513C7.86375 18.8682 7.83656 18.8828 7.80797 18.8945C7.77984 18.9062 7.75031 18.9156 7.72031 18.9212C7.69031 18.9273 7.65937 18.9306 7.62891 18.9306Z" fill="black"/>
<path d="M5.03163 16.7521H3.25586V21.7884H5.03163V16.7521Z" fill="#EAECF0"/>
<path d="M3.25594 16.7521H0.46875V22.6621H3.25594V16.7521Z" fill="white"/>
<path d="M21.5622 18.5148C21.5603 18.5101 21.5585 18.5055 21.5565 18.5009C21.1251 17.4913 20.1132 17.1182 18.9158 17.5272L15.6501 18.4303C15.4613 17.8585 14.9903 17.3719 14.3244 17.1248C14.3203 17.1233 14.3161 17.1218 14.312 17.1204L10.7222 15.902C10.4235 15.5158 9.48755 14.5276 7.73522 14.5276C6.51061 14.5276 5.42728 15.3677 4.8075 16.2834H0.46875C0.209859 16.2834 0 16.4933 0 16.7521V22.662C0 22.9209 0.209859 23.1308 0.46875 23.1308H3.2558C3.51469 23.1308 3.72455 22.9209 3.72455 22.662V22.2573H5.03156C5.29045 22.2573 5.50031 22.0474 5.50031 21.7885V21.6536C6.26222 21.7201 6.51281 21.8646 7.21256 22.2681C7.75069 22.5784 8.56402 23.0474 10.0287 23.706C10.0355 23.709 10.0424 23.7119 10.0493 23.7146C10.3304 23.8252 10.8799 23.9989 11.5574 23.9989C12.0289 23.9989 12.5626 23.9147 13.1104 23.6664L20.3287 21.0819C20.3415 21.0773 20.3542 21.0721 20.3666 21.0664C21.0564 20.749 22.0845 19.8545 21.5622 18.5148ZM2.78705 22.1932H0.9375V17.2208H2.78705V22.1932ZM4.56281 21.3197H3.72455V17.2208H4.56281V21.3197ZM19.992 20.2066L12.7769 22.7899C12.7706 22.7922 12.762 22.7955 12.7558 22.7981C12.7494 22.8007 12.7431 22.8034 12.7369 22.8062C11.732 23.268 10.7768 22.9916 10.4025 22.846C8.98772 22.2094 8.23261 21.774 7.68089 21.4559C6.91383 21.0135 6.54422 20.8004 5.50031 20.7142V16.9388C5.94464 16.2105 6.8063 15.465 7.73527 15.465C9.32836 15.465 10.0034 16.5012 10.0299 16.543C10.0872 16.6361 10.1752 16.7063 10.2786 16.7414L14.004 18.0058C14.599 18.2291 14.9134 18.7387 14.7689 19.2468C14.7022 19.4814 14.5481 19.6761 14.335 19.7948C14.1237 19.9125 13.8795 19.9416 13.6467 19.8772L9.44705 18.5463C9.20011 18.4681 8.93677 18.6048 8.85858 18.8516C8.78034 19.0984 8.91703 19.3618 9.16383 19.44L13.3708 20.7732C13.3753 20.7746 13.3797 20.776 13.3842 20.7773C13.5522 20.825 13.7232 20.8486 13.8931 20.8486C14.2043 20.8486 14.512 20.7694 14.7913 20.6138C15.2232 20.3731 15.5355 19.9787 15.6706 19.5032C15.6814 19.4652 15.691 19.4273 15.6993 19.3893L19.2188 18.4143C19.7271 18.2407 20.3944 18.1781 20.6915 18.8623C20.999 19.6656 20.1998 20.1075 19.992 20.2066Z" fill="black"/>
<path d="M11.2455 4.63317L7.08212 0.469826L1.8623 5.68968L10.782 14.6094L15.7077 9.68367" fill="white"/>
<path d="M8.7802 5.34431C8.78048 5.34337 8.78076 5.34244 8.78099 5.3415C8.26851 5.37651 7.76587 5.58984 7.37409 5.98162C6.51365 6.84206 6.51365 8.23706 7.37409 9.0975C8.23453 9.95794 9.62953 9.95794 10.49 9.0975C10.9061 8.68134 11.1209 8.14017 11.1346 7.59492" fill="white"/>
<path d="M18.9685 7.28105V3.56447C16.8516 3.47109 17.4624 3.09703 13.7792 1.44098C13.3101 1.25644 12.2272 0.954188 11.0675 1.48711C11.0669 1.48739 11.0658 1.48781 11.0652 1.48805L8.88208 2.26969L11.1346 4.52222" fill="white"/>
<path d="M1.8623 5.68968L3.63193 3.92006C4.60782 4.89595 4.60782 6.48342 3.63193 7.45931L1.8623 5.68968Z" fill="white"/>
<path d="M9.01245 12.8398C9.98834 11.8639 11.5758 11.8639 12.5517 12.8398L10.7821 14.6094L9.01245 12.8398Z" fill="white"/>
<path d="M5.3125 2.23945L7.08213 0.469826L8.85175 2.23945C7.87591 3.21534 6.28839 3.21534 5.3125 2.23945Z" fill="white"/>
<path d="M13.6502 8.5335C13.3294 9.41892 13.5233 10.4504 14.2321 11.1592L15.7076 9.68367" fill="white"/>
<path d="M14.6946 5.72616L10.4876 4.39299C9.75343 4.1842 8.98904 4.61016 8.78031 5.34436C8.57153 6.07856 8.99748 6.84296 9.83875 7.15514L13.5724 8.42231L13.5708 8.4218C13.5708 8.4218 14.3674 9.72305 16.2648 9.72305C17.4628 9.72305 18.4955 8.7548 18.9685 7.90725V6.21488" fill="white"/>
<path d="M16.3711 6.72624C16.3406 6.72624 16.3097 6.72296 16.2797 6.71686C16.2497 6.71077 16.2202 6.70186 16.192 6.69014C16.1634 6.67842 16.1363 6.66389 16.1109 6.64702C16.0852 6.63014 16.0612 6.61046 16.0397 6.58889C16.0181 6.56733 15.9984 6.54342 15.9816 6.51764C15.9647 6.49233 15.9502 6.46514 15.9384 6.43655C15.9267 6.40842 15.9173 6.37889 15.9117 6.34889C15.9056 6.31889 15.9023 6.28796 15.9023 6.25749C15.9023 6.22702 15.9056 6.19608 15.9117 6.16608C15.9173 6.13608 15.9267 6.10655 15.9384 6.07796C15.9502 6.04983 15.9647 6.02264 15.9816 5.99733C15.9984 5.97155 16.0181 5.94764 16.0397 5.92608C16.0612 5.90452 16.0852 5.88483 16.1109 5.86796C16.1363 5.85108 16.1634 5.83655 16.192 5.82483C16.2202 5.81311 16.2497 5.80374 16.2797 5.79811C16.3402 5.78592 16.4025 5.78592 16.463 5.79811C16.4925 5.80374 16.522 5.81311 16.5506 5.82483C16.5787 5.83655 16.6059 5.85108 16.6312 5.86796C16.657 5.88483 16.6809 5.90452 16.7025 5.92608C16.7241 5.94764 16.7437 5.97155 16.7606 5.99733C16.778 6.02264 16.792 6.04983 16.8038 6.07796C16.8159 6.10655 16.8248 6.13608 16.8309 6.16608C16.837 6.19608 16.8398 6.22702 16.8398 6.25749C16.8398 6.28796 16.837 6.31889 16.8309 6.34889C16.8248 6.37889 16.8159 6.40842 16.8038 6.43655C16.792 6.46514 16.778 6.49233 16.7606 6.51764C16.7437 6.54342 16.7241 6.56733 16.7025 6.58889C16.6809 6.61046 16.657 6.63014 16.6312 6.64702C16.6059 6.66389 16.5787 6.67842 16.5506 6.69014C16.522 6.70186 16.4925 6.71077 16.463 6.71686C16.4325 6.72296 16.4016 6.72624 16.3711 6.72624Z" fill="black"/>
<path d="M20.7443 2.93105H18.9685V7.9673H20.7443V2.93105Z" fill="#EAECF0"/>
<path d="M23.5313 2.05739H20.7441V7.96739H23.5313V2.05739Z" fill="white"/>
<path d="M23.5313 1.58864H20.7443C20.4854 1.58864 20.2755 1.7985 20.2755 2.05739V2.46211H18.9685C18.7096 2.46211 18.4998 2.67197 18.4998 2.93086V3.06577C17.7379 2.99925 17.4873 2.85478 16.7876 2.45128C16.2495 2.14097 15.4361 1.67199 13.9714 1.01344C13.9646 1.01034 13.9578 1.00749 13.9508 1.00477C13.474 0.817173 12.2245 0.448079 10.8899 1.05291L9.00365 1.72828L7.4137 0.138376C7.23065 -0.0446707 6.93384 -0.0446707 6.7508 0.138376L1.53089 5.35824C1.36205 5.52713 1.32966 5.81995 1.53089 6.02119L10.4506 14.9409C10.5933 15.0837 10.9275 15.1268 11.1135 14.9409L15.8791 10.1754C16.003 10.1861 16.1316 10.1918 16.2648 10.1918C17.4895 10.1918 18.5728 9.35175 19.1925 8.43609H23.5313C23.7902 8.43609 24.0001 8.22624 24.0001 7.96734V2.05739C24.0001 1.7985 23.7902 1.58864 23.5313 1.58864ZM8.27114 5.93592C8.35767 6.65602 8.87615 7.29788 9.6757 7.59459C9.67983 7.59609 9.68395 7.59759 9.68812 7.599L10.6254 7.91714C10.5547 8.23659 10.3945 8.53031 10.1587 8.76614C9.48239 9.44236 8.38195 9.44245 7.70573 8.76614C7.02942 8.08988 7.02942 6.98949 7.70573 6.31317C7.86886 6.14995 8.06137 6.02241 8.27114 5.93592ZM9.20878 4.10559C8.87278 4.29281 8.60915 4.57317 8.445 4.91236C7.91625 5.01028 7.42673 5.26627 7.04273 5.65022C6.00094 6.69206 6.00094 8.3872 7.04278 9.42905C7.56366 9.94992 8.24789 10.2104 8.93217 10.2104C9.6164 10.2104 10.3007 9.94997 10.8216 9.42905C11.1605 9.09014 11.3979 8.67361 11.5169 8.21967L13.0995 8.75681C12.9214 9.58219 13.1039 10.4505 13.5961 11.1325L12.5256 12.203C11.4898 11.4516 10.0744 11.4516 9.03858 12.203L4.269 7.43339C4.63505 6.92995 4.83267 6.32522 4.83267 5.68969C4.83267 5.05411 4.63509 4.44942 4.269 3.94599L5.33855 2.87649C5.84198 3.24253 6.44667 3.44016 7.08225 3.44016C7.71783 3.44016 8.32251 3.24253 8.82595 2.87649L9.83981 3.89035C9.62105 3.92264 9.40772 3.99474 9.20878 4.10559ZM14.2715 10.4571C14.0906 10.1622 13.9882 9.8257 13.972 9.48225C14.1966 9.64458 14.471 9.80363 14.7987 9.92986L14.2715 10.4571ZM7.0822 1.13274L8.15058 2.20111C7.833 2.39752 7.46583 2.50261 7.0822 2.50261C6.69853 2.50261 6.3314 2.39756 6.01383 2.20111L7.0822 1.13274ZM3.59367 4.62131C3.79008 4.93889 3.89517 5.30606 3.89517 5.68969C3.89517 6.07331 3.79012 6.44049 3.59367 6.75811L2.5253 5.68969L3.59367 4.62131ZM10.7821 13.9465L9.7139 12.8783C10.3661 12.4758 11.198 12.4758 11.8502 12.8783L10.7821 13.9465ZM16.2648 9.25425C16.091 9.25425 15.9281 9.24188 15.7758 9.21984C15.7752 9.21975 15.7746 9.21966 15.774 9.21956C14.7617 9.07252 14.2171 8.49717 14.0377 8.26936C14.0281 8.2553 13.9874 8.202 13.9813 8.19314C13.9267 8.09555 13.8372 8.01708 13.723 7.97831L9.99604 6.71339C9.40129 6.49017 9.0869 5.98088 9.231 5.47294C9.23109 5.47261 9.23119 5.47228 9.23128 5.47195C9.23142 5.47158 9.23151 5.47116 9.23161 5.47078C9.29859 5.23688 9.45244 5.04286 9.66506 4.92441C9.87628 4.8067 10.1205 4.7775 10.3533 4.84205L14.553 6.17288C14.7998 6.2512 15.0633 6.11442 15.1415 5.86763C15.2197 5.62083 15.083 5.35739 14.8362 5.27916L11.4961 4.22072L11.467 4.19156C11.4667 4.19128 11.4664 4.19095 11.4661 4.19067L9.73687 2.46145L11.2232 1.92924C11.2282 1.92741 11.2344 1.92511 11.2394 1.92309C11.2406 1.92258 11.2431 1.92164 11.2443 1.92113C11.2507 1.91855 11.2569 1.91583 11.2632 1.91297C12.268 1.45116 13.2231 1.72758 13.5975 1.87317C15.0123 2.50978 15.7675 2.9452 16.3192 3.26334C17.0863 3.7057 17.4559 3.91885 18.4997 4.00505V7.78045C18.0555 8.5088 17.1938 9.25425 16.2648 9.25425ZM19.4373 3.39961H20.2755V7.4985H19.4373V3.39961ZM23.0626 7.4985H21.213V2.52614H23.0626V7.4985Z" fill="black"/>
</g>
<defs>
<clipPath id="clip0_1266_74">
<rect width="24" height="24" fill="white"/>
</clipPath>
</defs>
</svg>
