<svg width="24" height="25" viewBox="0 0 24 25" fill="none" xmlns="http://www.w3.org/2000/svg">
<g clip-path="url(#clip0_1266_161)">
<path d="M6.82974 13.1375L8.07661 13.8406V15.5422L6.82974 14.8391V13.1375ZM10.4907 15.2L8.59692 14.1359V15.9875C8.60161 16.1797 8.37661 16.3156 8.20786 16.2125L6.44067 15.2188C6.3563 15.1719 6.30942 15.0875 6.30942 14.9938V12.8469L4.42036 11.7828V18.7203L10.4907 22.2266V15.2ZM16.9735 18.7203V11.7875L11.011 15.1953V22.1609L16.9735 18.7203ZM14.5594 10.4469L8.88286 13.6953L10.7485 14.7453L16.7297 11.3281L14.8875 10.2641L14.5594 10.4469ZM13.1063 9.2375L7.08286 12.6875L8.35317 13.4L14.3579 9.96406C14.2454 9.89844 13.2469 9.32187 13.1063 9.2375ZM4.67349 11.3281C5.14224 11.5906 6.08911 12.125 6.55786 12.3875L12.586 8.9375L10.6969 7.85L4.67349 11.3281ZM20.2969 7.42813C18.3844 4.45625 14.9391 2.48281 11.4188 2.30469C11.2829 2.29531 11.1797 2.18281 11.1797 2.04688V0.546875L6.83911 3.35469L11.1797 6.1625V4.83594C11.1797 4.69063 11.3016 4.56875 11.4469 4.57812C15.3891 4.5875 19.0922 7.4 20.2313 11.1688C21.525 14.9797 20.0016 19.4047 16.861 21.8328C12.1172 25.55 4.90786 24.0313 1.91724 18.8375C5.46099 25.5406 14.6672 26.3844 19.5094 20.6141C22.6407 16.9203 22.9313 11.4828 20.2969 7.42813Z" fill="white"/>
</g>
<defs>
<clipPath id="clip0_1266_161">
<rect width="24" height="24" fill="white" transform="translate(0 0.5)"/>
</clipPath>
</defs>
</svg>
