<svg width="24" height="24" viewBox="0 0 24 24" fill="none" xmlns="http://www.w3.org/2000/svg">
<g clip-path="url(#clip0_1266_38)">
<path d="M8.66354 16.593L5.84891 14.8553L6.13961 14.0563L6.10639 14.0695C5.86488 14.1657 5.60991 14.2133 5.35647 14.2133C4.9938 14.2133 4.63261 14.1158 4.31352 13.9246C3.77184 13.5995 3.41228 13.0396 3.3418 12.4113L2.93871 8.80762C2.93191 8.74675 2.93812 8.68795 2.93679 8.62787L1.25822 13.242C1.01749 13.9036 1.20706 14.5517 1.38533 15.1796C1.42082 15.3046 2.56806 18.4909 2.56806 18.4909L0.277917 21.5892C-0.187762 22.2192 -0.0546824 23.1078 0.57567 23.5738C0.829112 23.7615 1.1245 23.8517 1.41826 23.8517C1.85303 23.8517 2.28229 23.6526 2.56023 23.276L5.30979 19.5563C5.59645 19.1691 5.66615 18.663 5.49669 18.2124L5.37929 17.901L6.42564 18.547L6.08431 22.3043C6.01383 23.0847 6.58873 23.7748 7.36956 23.8457C7.41318 23.8497 7.4567 23.8516 7.49949 23.8516C8.22565 23.8516 8.84413 23.2977 8.91146 22.5608L9.33194 17.9289C9.38024 17.3932 9.12207 16.8757 8.66354 16.593Z" fill="white"/>
<path d="M6.96801 8.35698L7.0757 9.31914L7.96334 8.96549C8.25553 7.77537 7.62246 6.53177 6.44378 6.10316C5.31881 5.69327 4.09453 6.16807 3.51416 7.16745C3.82926 6.84648 4.24585 6.62143 4.72769 6.5676C5.84428 6.44054 6.8437 7.24434 6.96801 8.35698Z" fill="white"/>
<path d="M6.98071 5.16589C8.36655 5.16589 9.4895 4.04261 9.4895 2.65715C9.4895 1.2717 8.3666 0.148315 6.98071 0.148315C5.59565 0.148315 4.47266 1.2717 4.47266 2.65715C4.47266 4.04261 5.5956 5.16589 6.98071 5.16589Z" fill="white"/>
<path d="M22.9355 14.8444H15.4345C14.8468 14.8444 14.3701 15.3208 14.3701 15.9087V18.899C14.3701 19.487 14.8468 19.9634 15.4345 19.9634H22.9356C23.5232 19.9634 24 19.487 24 18.899V15.9087C23.9999 15.3208 23.5232 14.8444 22.9355 14.8444Z" fill="white"/>
<path d="M14.5729 13.3746H18.7543C19.3419 13.3746 19.8187 12.8983 19.8187 12.3103V9.64661C19.8187 9.0586 19.3419 8.58228 18.7543 8.58228H14.5729C13.9853 8.58228 13.5085 9.05865 13.5085 9.64661V12.3103C13.5085 12.8983 13.9853 13.3746 14.5729 13.3746Z" fill="white"/>
<path d="M21.9726 21.0784H12.6469V11.8034C12.6469 11.3556 12.2842 10.9925 11.836 10.9925H11.4642H10.6164C10.7291 10.7128 10.7407 10.3918 10.6204 10.0893C10.3717 9.46488 9.66137 9.16358 9.04048 9.40948L6.38831 10.4659L6.16178 8.44732C6.08735 7.77931 5.4847 7.29623 4.81787 7.37347C4.15026 7.44829 3.6696 8.04976 3.74481 8.71737L4.14794 12.321C4.18994 12.6984 4.40533 13.0342 4.73078 13.2293C4.92246 13.3442 5.13859 13.4024 5.3564 13.4024C5.50841 13.4024 5.6613 13.3739 5.80621 13.3161L8.44906 12.2635C8.59594 12.4706 8.82563 12.6145 9.09903 12.6145H9.75999H11.025V21.8895C11.025 22.3373 11.3877 22.7004 11.8359 22.7004H12.8258C12.95 23.3138 13.4917 23.7758 14.142 23.7758C14.7923 23.7758 15.334 23.3137 15.4581 22.7004H18.5024C18.6265 23.3138 19.1682 23.7758 19.8186 23.7758C20.4687 23.7758 21.0106 23.3137 21.1346 22.7004H21.9725C22.4208 22.7004 22.7835 22.3373 22.7835 21.8895C22.7835 21.4415 22.4208 21.0784 21.9726 21.0784Z" fill="white"/>
</g>
<defs>
<clipPath id="clip0_1266_38">
<rect width="24" height="24" fill="white"/>
</clipPath>
</defs>
</svg>
