<svg width="24" height="24" viewBox="0 0 24 24" fill="none" xmlns="http://www.w3.org/2000/svg">
<g clip-path="url(#clip0_1266_27)">
<path fill-rule="evenodd" clip-rule="evenodd" d="M12.0001 4.60468C13.9714 4.60468 15.5722 6.20542 15.5722 8.17677C15.5722 9.25286 15.0575 10.6504 14.2505 11.5926C13.6265 12.3215 12.8328 12.7747 12.0001 12.7747C11.1673 12.7747 10.3737 12.3215 9.74965 11.5926C8.94261 10.6504 8.42798 9.25286 8.42798 8.17677C8.42798 6.20542 10.0287 4.60468 12.0001 4.60468Z" fill="white"/>
<path fill-rule="evenodd" clip-rule="evenodd" d="M19.2558 1.53485C20.7963 1.53485 22.0465 2.78508 22.0465 4.32555C22.0465 5.14266 21.6581 6.20536 21.0452 6.92088C20.5507 7.49911 19.9156 7.84853 19.2558 7.84853C18.5961 7.84853 17.9609 7.49915 17.4664 6.92092C16.8536 6.20541 16.4651 5.14271 16.4651 4.32555C16.4651 2.78508 17.7154 1.53485 19.2558 1.53485Z" fill="white"/>
<path fill-rule="evenodd" clip-rule="evenodd" d="M4.74411 1.53485C6.28458 1.53485 7.53481 2.78508 7.53481 4.32555C7.53481 5.14266 7.14634 6.20536 6.53353 6.92088C6.03899 7.49911 5.40385 7.84853 4.74411 7.84853C4.08437 7.84853 3.44923 7.49915 2.95469 6.92092C2.34183 6.20541 1.95337 5.14271 1.95337 4.32555C1.95341 2.78508 3.20365 1.53485 4.74411 1.53485Z" fill="white"/>
<path fill-rule="evenodd" clip-rule="evenodd" d="M12.0001 13.3675C15.4829 13.3675 18.3071 16.1916 18.3071 19.6744V20.8465C18.3071 21.7407 17.5826 22.4651 16.6885 22.4651H7.31172C6.41756 22.4651 5.69312 21.7407 5.69312 20.8465V19.6744C5.69312 16.1916 8.5173 13.3675 12.0001 13.3675Z" fill="white"/>
<path fill-rule="evenodd" clip-rule="evenodd" d="M5.86826 15.4883H1.39535C0.625116 15.4883 0 14.8633 0 14.093V13.2558C0 10.6359 2.12426 8.51163 4.74419 8.51163C5.75216 8.51163 6.68651 8.82528 7.45451 9.36109C7.68893 10.3992 8.20132 11.501 8.90121 12.3181C9.03407 12.4732 9.17244 12.6173 9.31533 12.7512C7.90881 13.2971 6.70884 14.2605 5.86826 15.4883Z" fill="white"/>
<path fill-rule="evenodd" clip-rule="evenodd" d="M16.5454 9.36109C17.3134 8.82528 18.2477 8.51163 19.2557 8.51163C21.8756 8.51163 23.9999 10.6359 23.9999 13.2558V14.093C23.9999 14.8633 23.3748 15.4884 22.6045 15.4884H18.1316C17.2911 14.2605 16.0911 13.2971 14.6846 12.7513C14.8275 12.6173 14.9659 12.4733 15.0987 12.3181C15.7986 11.501 16.311 10.3992 16.5454 9.36109Z" fill="white"/>
</g>
<defs>
<clipPath id="clip0_1266_27">
<rect width="24" height="24" fill="white"/>
</clipPath>
</defs>
</svg>
